<mxfile host="Electron" modified="2024-03-15T06:04:06.034Z" agent="Mozilla/5.0 (Windows NT 10.0; Win64; x64) AppleWebKit/537.36 (KHTML, like Gecko) draw.io/24.0.4 Chrome/120.0.6099.109 Electron/28.1.0 Safari/537.36" etag="W7F-w2PRKihmuWdSKRhE" version="24.0.4" type="device">
  <diagram name="第 1 页" id="XUc3JmornbTdFKz7zeRK">
    <mxGraphModel dx="1871" dy="1073" grid="1" gridSize="10" guides="1" tooltips="1" connect="1" arrows="1" fold="1" page="1" pageScale="1" pageWidth="2336" pageHeight="1654" math="0" shadow="0">
      <root>
        <mxCell id="0" />
        <mxCell id="1" parent="0" />
        <mxCell id="OFLnQIh8X5-1kBcaMLyX-12" style="edgeStyle=orthogonalEdgeStyle;rounded=0;orthogonalLoop=1;jettySize=auto;html=1;exitX=0.5;exitY=1;exitDx=0;exitDy=0;exitPerimeter=0;entryX=0.5;entryY=0;entryDx=0;entryDy=0;" edge="1" parent="1" source="OFLnQIh8X5-1kBcaMLyX-4" target="OFLnQIh8X5-1kBcaMLyX-7">
          <mxGeometry relative="1" as="geometry" />
        </mxCell>
        <mxCell id="OFLnQIh8X5-1kBcaMLyX-4" value="&lt;span style=&quot;font-size: 20px;&quot;&gt;Start&lt;/span&gt;" style="strokeWidth=2;html=1;shape=mxgraph.flowchart.start_1;whiteSpace=wrap;" vertex="1" parent="1">
          <mxGeometry x="520" y="10" width="100" height="60" as="geometry" />
        </mxCell>
        <mxCell id="OFLnQIh8X5-1kBcaMLyX-13" style="edgeStyle=orthogonalEdgeStyle;rounded=0;orthogonalLoop=1;jettySize=auto;html=1;exitX=0.5;exitY=1;exitDx=0;exitDy=0;entryX=0.5;entryY=0;entryDx=0;entryDy=0;" edge="1" parent="1" source="OFLnQIh8X5-1kBcaMLyX-7" target="OFLnQIh8X5-1kBcaMLyX-9">
          <mxGeometry relative="1" as="geometry" />
        </mxCell>
        <mxCell id="OFLnQIh8X5-1kBcaMLyX-7" value="&lt;div style=&quot;background-color:#1e1f22;color:#bcbec4&quot;&gt;&lt;pre style=&quot;font-family:&#39;JetBrains Mono&#39;,monospace;font-size:14.3pt;&quot;&gt;&lt;span style=&quot;color:#56a8f5;&quot;&gt;avformat_alloc_context&lt;/span&gt;&lt;/pre&gt;&lt;/div&gt;" style="rounded=1;whiteSpace=wrap;html=1;absoluteArcSize=1;arcSize=14;strokeWidth=2;" vertex="1" parent="1">
          <mxGeometry x="460" y="100" width="220" height="30" as="geometry" />
        </mxCell>
        <mxCell id="OFLnQIh8X5-1kBcaMLyX-9" value="&lt;div style=&quot;background-color:#1e1f22;color:#bcbec4&quot;&gt;&lt;pre style=&quot;font-family:&#39;JetBrains Mono&#39;,monospace;font-size:14.3pt;&quot;&gt;&lt;span style=&quot;color:#56a8f5;&quot;&gt;avformat_open_input&lt;/span&gt;&lt;/pre&gt;&lt;/div&gt;" style="rounded=1;whiteSpace=wrap;html=1;absoluteArcSize=1;arcSize=14;strokeWidth=2;" vertex="1" parent="1">
          <mxGeometry x="470" y="160" width="200" height="30" as="geometry" />
        </mxCell>
        <mxCell id="OFLnQIh8X5-1kBcaMLyX-19" style="edgeStyle=orthogonalEdgeStyle;rounded=0;orthogonalLoop=1;jettySize=auto;html=1;exitX=0.5;exitY=1;exitDx=0;exitDy=0;entryX=0.5;entryY=0;entryDx=0;entryDy=0;" edge="1" parent="1" source="OFLnQIh8X5-1kBcaMLyX-10" target="OFLnQIh8X5-1kBcaMLyX-18">
          <mxGeometry relative="1" as="geometry" />
        </mxCell>
        <mxCell id="OFLnQIh8X5-1kBcaMLyX-10" value="&lt;div style=&quot;background-color:#1e1f22;color:#bcbec4&quot;&gt;&lt;pre style=&quot;font-family:&#39;JetBrains Mono&#39;,monospace;font-size:14.3pt;&quot;&gt;&lt;span style=&quot;color:#56a8f5;&quot;&gt;av_find_best_stream&lt;/span&gt;&lt;/pre&gt;&lt;/div&gt;" style="rounded=1;whiteSpace=wrap;html=1;absoluteArcSize=1;arcSize=14;strokeWidth=2;" vertex="1" parent="1">
          <mxGeometry x="470" y="280" width="200" height="30" as="geometry" />
        </mxCell>
        <mxCell id="OFLnQIh8X5-1kBcaMLyX-15" style="edgeStyle=orthogonalEdgeStyle;rounded=0;orthogonalLoop=1;jettySize=auto;html=1;exitX=0.5;exitY=1;exitDx=0;exitDy=0;entryX=0.5;entryY=0;entryDx=0;entryDy=0;" edge="1" parent="1" source="OFLnQIh8X5-1kBcaMLyX-11" target="OFLnQIh8X5-1kBcaMLyX-10">
          <mxGeometry relative="1" as="geometry" />
        </mxCell>
        <mxCell id="OFLnQIh8X5-1kBcaMLyX-11" value="&lt;div style=&quot;background-color:#1e1f22;color:#bcbec4&quot;&gt;&lt;pre style=&quot;font-family:&#39;JetBrains Mono&#39;,monospace;font-size:14.3pt;&quot;&gt;&lt;div&gt;&lt;pre style=&quot;font-family:&#39;JetBrains Mono&#39;,monospace;font-size:14.3pt;&quot;&gt;&lt;span style=&quot;color:#56a8f5;&quot;&gt;avformat_find_stream_info&lt;/span&gt;&lt;/pre&gt;&lt;/div&gt;&lt;/pre&gt;&lt;/div&gt;" style="rounded=1;whiteSpace=wrap;html=1;absoluteArcSize=1;arcSize=14;strokeWidth=2;" vertex="1" parent="1">
          <mxGeometry x="445" y="220" width="250" height="30" as="geometry" />
        </mxCell>
        <mxCell id="OFLnQIh8X5-1kBcaMLyX-14" style="edgeStyle=orthogonalEdgeStyle;rounded=0;orthogonalLoop=1;jettySize=auto;html=1;exitX=0.5;exitY=1;exitDx=0;exitDy=0;entryX=0.497;entryY=-0.148;entryDx=0;entryDy=0;entryPerimeter=0;" edge="1" parent="1" source="OFLnQIh8X5-1kBcaMLyX-9" target="OFLnQIh8X5-1kBcaMLyX-11">
          <mxGeometry relative="1" as="geometry" />
        </mxCell>
        <mxCell id="OFLnQIh8X5-1kBcaMLyX-21" style="edgeStyle=orthogonalEdgeStyle;rounded=0;orthogonalLoop=1;jettySize=auto;html=1;exitX=0.5;exitY=1;exitDx=0;exitDy=0;entryX=0.5;entryY=0;entryDx=0;entryDy=0;" edge="1" parent="1" source="OFLnQIh8X5-1kBcaMLyX-18" target="OFLnQIh8X5-1kBcaMLyX-20">
          <mxGeometry relative="1" as="geometry" />
        </mxCell>
        <mxCell id="OFLnQIh8X5-1kBcaMLyX-18" value="&lt;div style=&quot;background-color:#1e1f22;color:#bcbec4&quot;&gt;&lt;pre style=&quot;font-family:&#39;JetBrains Mono&#39;,monospace;font-size:14.3pt;&quot;&gt;&lt;span style=&quot;color:#56a8f5;&quot;&gt;av_bsf_get_by_name&lt;/span&gt;&lt;/pre&gt;&lt;/div&gt;" style="rounded=1;whiteSpace=wrap;html=1;absoluteArcSize=1;arcSize=14;strokeWidth=2;" vertex="1" parent="1">
          <mxGeometry x="475" y="350" width="190" height="30" as="geometry" />
        </mxCell>
        <mxCell id="OFLnQIh8X5-1kBcaMLyX-23" style="edgeStyle=orthogonalEdgeStyle;rounded=0;orthogonalLoop=1;jettySize=auto;html=1;exitX=0.5;exitY=1;exitDx=0;exitDy=0;entryX=0.5;entryY=0;entryDx=0;entryDy=0;" edge="1" parent="1" source="OFLnQIh8X5-1kBcaMLyX-20" target="OFLnQIh8X5-1kBcaMLyX-22">
          <mxGeometry relative="1" as="geometry" />
        </mxCell>
        <mxCell id="OFLnQIh8X5-1kBcaMLyX-20" value="&lt;div style=&quot;background-color:#1e1f22;color:#bcbec4&quot;&gt;&lt;pre style=&quot;font-family:&#39;JetBrains Mono&#39;,monospace;font-size:14.3pt;&quot;&gt;&lt;span style=&quot;color:#56a8f5;&quot;&gt;av_bsf_alloc&lt;/span&gt;&lt;/pre&gt;&lt;/div&gt;" style="rounded=1;whiteSpace=wrap;html=1;absoluteArcSize=1;arcSize=14;strokeWidth=2;" vertex="1" parent="1">
          <mxGeometry x="505" y="410" width="130" height="30" as="geometry" />
        </mxCell>
        <mxCell id="OFLnQIh8X5-1kBcaMLyX-25" style="edgeStyle=orthogonalEdgeStyle;rounded=0;orthogonalLoop=1;jettySize=auto;html=1;exitX=0.5;exitY=1;exitDx=0;exitDy=0;" edge="1" parent="1" source="OFLnQIh8X5-1kBcaMLyX-22" target="OFLnQIh8X5-1kBcaMLyX-24">
          <mxGeometry relative="1" as="geometry" />
        </mxCell>
        <mxCell id="OFLnQIh8X5-1kBcaMLyX-22" value="&lt;div style=&quot;background-color:#1e1f22;color:#bcbec4&quot;&gt;&lt;pre style=&quot;font-family:&#39;JetBrains Mono&#39;,monospace;font-size:14.3pt;&quot;&gt;&lt;span style=&quot;color:#56a8f5;&quot;&gt;avcodec_parameters_copy&lt;/span&gt;&lt;/pre&gt;&lt;/div&gt;" style="rounded=1;whiteSpace=wrap;html=1;absoluteArcSize=1;arcSize=14;strokeWidth=2;" vertex="1" parent="1">
          <mxGeometry x="455" y="470" width="230" height="30" as="geometry" />
        </mxCell>
        <mxCell id="OFLnQIh8X5-1kBcaMLyX-28" style="edgeStyle=orthogonalEdgeStyle;rounded=0;orthogonalLoop=1;jettySize=auto;html=1;exitX=0.5;exitY=1;exitDx=0;exitDy=0;entryX=0.5;entryY=0;entryDx=0;entryDy=0;" edge="1" parent="1" source="OFLnQIh8X5-1kBcaMLyX-24" target="OFLnQIh8X5-1kBcaMLyX-27">
          <mxGeometry relative="1" as="geometry" />
        </mxCell>
        <mxCell id="OFLnQIh8X5-1kBcaMLyX-24" value="&lt;div style=&quot;background-color:#1e1f22;color:#bcbec4&quot;&gt;&lt;pre style=&quot;font-family:&#39;JetBrains Mono&#39;,monospace;font-size:14.3pt;&quot;&gt;&lt;span style=&quot;color:#56a8f5;&quot;&gt;av_bsf_init&lt;/span&gt;&lt;/pre&gt;&lt;/div&gt;" style="rounded=1;whiteSpace=wrap;html=1;absoluteArcSize=1;arcSize=14;strokeWidth=2;" vertex="1" parent="1">
          <mxGeometry x="510" y="530" width="120" height="30" as="geometry" />
        </mxCell>
        <mxCell id="OFLnQIh8X5-1kBcaMLyX-27" value="&lt;div style=&quot;background-color:#1e1f22;color:#bcbec4&quot;&gt;&lt;pre style=&quot;font-family:&#39;JetBrains Mono&#39;,monospace;font-size:14.3pt;&quot;&gt;&lt;span style=&quot;color:#56a8f5;&quot;&gt;av_read_frame&lt;/span&gt;&lt;/pre&gt;&lt;/div&gt;" style="rounded=1;whiteSpace=wrap;html=1;absoluteArcSize=1;arcSize=14;strokeWidth=2;" vertex="1" parent="1">
          <mxGeometry x="500" y="600" width="140" height="30" as="geometry" />
        </mxCell>
        <mxCell id="OFLnQIh8X5-1kBcaMLyX-86" style="edgeStyle=orthogonalEdgeStyle;rounded=0;orthogonalLoop=1;jettySize=auto;html=1;exitX=0.5;exitY=1;exitDx=0;exitDy=0;exitPerimeter=0;" edge="1" parent="1" source="OFLnQIh8X5-1kBcaMLyX-29">
          <mxGeometry relative="1" as="geometry">
            <mxPoint x="570.0769230769229" y="1100" as="targetPoint" />
          </mxGeometry>
        </mxCell>
        <mxCell id="OFLnQIh8X5-1kBcaMLyX-29" value="EAGIN or EOF" style="strokeWidth=2;html=1;shape=mxgraph.flowchart.decision;whiteSpace=wrap;" vertex="1" parent="1">
          <mxGeometry x="520" y="670" width="100" height="60" as="geometry" />
        </mxCell>
        <mxCell id="OFLnQIh8X5-1kBcaMLyX-30" style="edgeStyle=orthogonalEdgeStyle;rounded=0;orthogonalLoop=1;jettySize=auto;html=1;exitX=0.5;exitY=1;exitDx=0;exitDy=0;entryX=0.5;entryY=0;entryDx=0;entryDy=0;entryPerimeter=0;" edge="1" parent="1" source="OFLnQIh8X5-1kBcaMLyX-27" target="OFLnQIh8X5-1kBcaMLyX-29">
          <mxGeometry relative="1" as="geometry" />
        </mxCell>
        <mxCell id="OFLnQIh8X5-1kBcaMLyX-47" style="edgeStyle=orthogonalEdgeStyle;rounded=0;orthogonalLoop=1;jettySize=auto;html=1;exitX=1;exitY=0.5;exitDx=0;exitDy=0;exitPerimeter=0;" edge="1" parent="1" source="OFLnQIh8X5-1kBcaMLyX-32" target="OFLnQIh8X5-1kBcaMLyX-39">
          <mxGeometry relative="1" as="geometry" />
        </mxCell>
        <mxCell id="OFLnQIh8X5-1kBcaMLyX-62" style="edgeStyle=orthogonalEdgeStyle;rounded=0;orthogonalLoop=1;jettySize=auto;html=1;exitX=0;exitY=0.5;exitDx=0;exitDy=0;exitPerimeter=0;" edge="1" parent="1" source="OFLnQIh8X5-1kBcaMLyX-32" target="OFLnQIh8X5-1kBcaMLyX-51">
          <mxGeometry relative="1" as="geometry" />
        </mxCell>
        <mxCell id="OFLnQIh8X5-1kBcaMLyX-32" value="is_video_or_audio" style="strokeWidth=2;html=1;shape=mxgraph.flowchart.decision;whiteSpace=wrap;" vertex="1" parent="1">
          <mxGeometry x="820" y="758" width="130" height="52" as="geometry" />
        </mxCell>
        <mxCell id="OFLnQIh8X5-1kBcaMLyX-33" style="edgeStyle=orthogonalEdgeStyle;rounded=0;orthogonalLoop=1;jettySize=auto;html=1;exitX=1;exitY=0.5;exitDx=0;exitDy=0;exitPerimeter=0;entryX=0.5;entryY=0;entryDx=0;entryDy=0;entryPerimeter=0;" edge="1" parent="1" source="OFLnQIh8X5-1kBcaMLyX-29" target="OFLnQIh8X5-1kBcaMLyX-32">
          <mxGeometry relative="1" as="geometry" />
        </mxCell>
        <mxCell id="OFLnQIh8X5-1kBcaMLyX-42" style="edgeStyle=orthogonalEdgeStyle;rounded=0;orthogonalLoop=1;jettySize=auto;html=1;exitX=0.5;exitY=1;exitDx=0;exitDy=0;" edge="1" parent="1" source="OFLnQIh8X5-1kBcaMLyX-39" target="OFLnQIh8X5-1kBcaMLyX-40">
          <mxGeometry relative="1" as="geometry" />
        </mxCell>
        <mxCell id="OFLnQIh8X5-1kBcaMLyX-39" value="&lt;div style=&quot;background-color:#1e1f22;color:#bcbec4&quot;&gt;&lt;pre style=&quot;font-family:&#39;JetBrains Mono&#39;,monospace;font-size:14.3pt;&quot;&gt;&lt;span style=&quot;color:#56a8f5;&quot;&gt;av_bsf_send_packet&lt;/span&gt;&lt;/pre&gt;&lt;/div&gt;" style="rounded=1;whiteSpace=wrap;html=1;absoluteArcSize=1;arcSize=14;strokeWidth=2;" vertex="1" parent="1">
          <mxGeometry x="1005" y="840" width="175" height="30" as="geometry" />
        </mxCell>
        <mxCell id="OFLnQIh8X5-1kBcaMLyX-40" value="&lt;div style=&quot;background-color:#1e1f22;color:#bcbec4&quot;&gt;&lt;pre style=&quot;font-family:&#39;JetBrains Mono&#39;,monospace;font-size:14.3pt;&quot;&gt;&lt;span style=&quot;color:#56a8f5;&quot;&gt;av_bsf_receive_packet&lt;/span&gt;&lt;/pre&gt;&lt;/div&gt;" style="rounded=1;whiteSpace=wrap;html=1;absoluteArcSize=1;arcSize=14;strokeWidth=2;" vertex="1" parent="1">
          <mxGeometry x="990" y="910" width="205" height="30" as="geometry" />
        </mxCell>
        <mxCell id="OFLnQIh8X5-1kBcaMLyX-64" style="edgeStyle=orthogonalEdgeStyle;rounded=0;orthogonalLoop=1;jettySize=auto;html=1;exitX=0.5;exitY=1;exitDx=0;exitDy=0;entryX=0.5;entryY=0;entryDx=0;entryDy=0;" edge="1" parent="1" source="OFLnQIh8X5-1kBcaMLyX-51" target="OFLnQIh8X5-1kBcaMLyX-63">
          <mxGeometry relative="1" as="geometry" />
        </mxCell>
        <mxCell id="OFLnQIh8X5-1kBcaMLyX-51" value="&lt;div style=&quot;background-color:#1e1f22;color:#bcbec4&quot;&gt;&lt;pre style=&quot;font-family:&#39;JetBrains Mono&#39;,monospace;font-size:14.3pt;&quot;&gt;&lt;span style=&quot;color:#56a8f5;&quot;&gt;adts_header&lt;/span&gt;&lt;/pre&gt;&lt;/div&gt;" style="rounded=1;whiteSpace=wrap;html=1;absoluteArcSize=1;arcSize=14;strokeWidth=2;" vertex="1" parent="1">
          <mxGeometry x="610" y="850" width="115" height="30" as="geometry" />
        </mxCell>
        <mxCell id="OFLnQIh8X5-1kBcaMLyX-75" style="edgeStyle=orthogonalEdgeStyle;rounded=0;orthogonalLoop=1;jettySize=auto;html=1;exitX=1;exitY=0.5;exitDx=0;exitDy=0;" edge="1" parent="1" source="OFLnQIh8X5-1kBcaMLyX-52">
          <mxGeometry relative="1" as="geometry">
            <mxPoint x="1152" y="1105" as="sourcePoint" />
            <mxPoint x="1092.5" y="890" as="targetPoint" />
            <Array as="points">
              <mxPoint x="1230" y="1095" />
              <mxPoint x="1230" y="890" />
            </Array>
          </mxGeometry>
        </mxCell>
        <mxCell id="OFLnQIh8X5-1kBcaMLyX-52" value="&lt;div style=&quot;background-color:#1e1f22;color:#bcbec4&quot;&gt;&lt;pre style=&quot;font-family:&#39;JetBrains Mono&#39;,monospace;font-size:14.3pt;&quot;&gt;&lt;span style=&quot;color:#57aaf7;&quot;&gt;write&lt;/span&gt;&lt;/pre&gt;&lt;/div&gt;" style="rounded=1;whiteSpace=wrap;html=1;absoluteArcSize=1;arcSize=14;strokeWidth=2;" vertex="1" parent="1">
          <mxGeometry x="1042.5" y="1080" width="100" height="30" as="geometry" />
        </mxCell>
        <mxCell id="OFLnQIh8X5-1kBcaMLyX-73" style="edgeStyle=orthogonalEdgeStyle;rounded=0;orthogonalLoop=1;jettySize=auto;html=1;exitX=0.5;exitY=1;exitDx=0;exitDy=0;exitPerimeter=0;entryX=0.5;entryY=0;entryDx=0;entryDy=0;" edge="1" parent="1" source="OFLnQIh8X5-1kBcaMLyX-56" target="OFLnQIh8X5-1kBcaMLyX-52">
          <mxGeometry relative="1" as="geometry" />
        </mxCell>
        <mxCell id="OFLnQIh8X5-1kBcaMLyX-76" style="edgeStyle=orthogonalEdgeStyle;rounded=0;orthogonalLoop=1;jettySize=auto;html=1;exitX=0;exitY=0.5;exitDx=0;exitDy=0;exitPerimeter=0;" edge="1" parent="1" source="OFLnQIh8X5-1kBcaMLyX-56">
          <mxGeometry relative="1" as="geometry">
            <mxPoint x="570" y="580" as="targetPoint" />
            <mxPoint x="1052.5" y="1010" as="sourcePoint" />
            <Array as="points">
              <mxPoint x="980" y="1005" />
              <mxPoint x="980" y="580" />
            </Array>
          </mxGeometry>
        </mxCell>
        <mxCell id="OFLnQIh8X5-1kBcaMLyX-56" value="EAGIN or EOF" style="strokeWidth=2;html=1;shape=mxgraph.flowchart.decision;whiteSpace=wrap;" vertex="1" parent="1">
          <mxGeometry x="1042.5" y="980" width="100" height="50" as="geometry" />
        </mxCell>
        <mxCell id="OFLnQIh8X5-1kBcaMLyX-79" style="edgeStyle=orthogonalEdgeStyle;rounded=0;orthogonalLoop=1;jettySize=auto;html=1;exitX=0.5;exitY=1;exitDx=0;exitDy=0;entryX=0.5;entryY=0;entryDx=0;entryDy=0;" edge="1" parent="1" source="OFLnQIh8X5-1kBcaMLyX-63" target="OFLnQIh8X5-1kBcaMLyX-78">
          <mxGeometry relative="1" as="geometry" />
        </mxCell>
        <mxCell id="OFLnQIh8X5-1kBcaMLyX-63" value="&lt;div style=&quot;background-color:#1e1f22;color:#bcbec4&quot;&gt;&lt;pre style=&quot;font-family:&#39;JetBrains Mono&#39;,monospace;font-size:14.3pt;&quot;&gt;&lt;span style=&quot;color:#57aaf7;&quot;&gt;write head&lt;/span&gt;&lt;/pre&gt;&lt;/div&gt;" style="rounded=1;whiteSpace=wrap;html=1;absoluteArcSize=1;arcSize=14;strokeWidth=2;" vertex="1" parent="1">
          <mxGeometry x="617.5" y="920" width="100" height="30" as="geometry" />
        </mxCell>
        <mxCell id="OFLnQIh8X5-1kBcaMLyX-72" style="edgeStyle=orthogonalEdgeStyle;rounded=0;orthogonalLoop=1;jettySize=auto;html=1;entryX=0.5;entryY=0;entryDx=0;entryDy=0;entryPerimeter=0;" edge="1" parent="1" source="OFLnQIh8X5-1kBcaMLyX-40" target="OFLnQIh8X5-1kBcaMLyX-56">
          <mxGeometry relative="1" as="geometry" />
        </mxCell>
        <mxCell id="OFLnQIh8X5-1kBcaMLyX-74" value="False" style="text;html=1;align=center;verticalAlign=middle;resizable=0;points=[];autosize=1;strokeColor=none;fillColor=none;" vertex="1" parent="1">
          <mxGeometry x="1092.5" y="1030" width="50" height="30" as="geometry" />
        </mxCell>
        <mxCell id="OFLnQIh8X5-1kBcaMLyX-83" style="edgeStyle=orthogonalEdgeStyle;rounded=0;orthogonalLoop=1;jettySize=auto;html=1;exitX=0.5;exitY=1;exitDx=0;exitDy=0;" edge="1" parent="1" source="OFLnQIh8X5-1kBcaMLyX-78">
          <mxGeometry relative="1" as="geometry">
            <mxPoint x="570" y="580" as="targetPoint" />
            <Array as="points">
              <mxPoint x="668" y="1040" />
              <mxPoint x="430" y="1040" />
              <mxPoint x="430" y="580" />
            </Array>
          </mxGeometry>
        </mxCell>
        <mxCell id="OFLnQIh8X5-1kBcaMLyX-78" value="&lt;div style=&quot;background-color:#1e1f22;color:#bcbec4&quot;&gt;&lt;pre style=&quot;font-family:&#39;JetBrains Mono&#39;,monospace;font-size:14.3pt;&quot;&gt;&lt;span style=&quot;color:#57aaf7;&quot;&gt;write data&lt;/span&gt;&lt;/pre&gt;&lt;/div&gt;" style="rounded=1;whiteSpace=wrap;html=1;absoluteArcSize=1;arcSize=14;strokeWidth=2;" vertex="1" parent="1">
          <mxGeometry x="617.5" y="990" width="100" height="30" as="geometry" />
        </mxCell>
        <mxCell id="OFLnQIh8X5-1kBcaMLyX-85" value="True" style="text;html=1;align=center;verticalAlign=middle;resizable=0;points=[];autosize=1;strokeColor=none;fillColor=none;" vertex="1" parent="1">
          <mxGeometry x="990" y="968" width="50" height="30" as="geometry" />
        </mxCell>
        <mxCell id="OFLnQIh8X5-1kBcaMLyX-87" value="END" style="strokeWidth=2;html=1;shape=mxgraph.flowchart.terminator;whiteSpace=wrap;" vertex="1" parent="1">
          <mxGeometry x="520" y="1100" width="100" height="40" as="geometry" />
        </mxCell>
        <mxCell id="OFLnQIh8X5-1kBcaMLyX-88" value="False" style="text;html=1;align=center;verticalAlign=middle;resizable=0;points=[];autosize=1;strokeColor=none;fillColor=none;" vertex="1" parent="1">
          <mxGeometry x="655" y="658" width="50" height="30" as="geometry" />
        </mxCell>
        <mxCell id="OFLnQIh8X5-1kBcaMLyX-89" value="True" style="text;html=1;align=center;verticalAlign=middle;resizable=0;points=[];autosize=1;strokeColor=none;fillColor=none;" vertex="1" parent="1">
          <mxGeometry x="515" y="748" width="50" height="30" as="geometry" />
        </mxCell>
        <mxCell id="OFLnQIh8X5-1kBcaMLyX-90" value="Audio" style="text;html=1;align=center;verticalAlign=middle;resizable=0;points=[];autosize=1;strokeColor=none;fillColor=none;" vertex="1" parent="1">
          <mxGeometry x="740" y="748" width="50" height="30" as="geometry" />
        </mxCell>
        <mxCell id="OFLnQIh8X5-1kBcaMLyX-91" value="Video" style="text;html=1;align=center;verticalAlign=middle;resizable=0;points=[];autosize=1;strokeColor=none;fillColor=none;" vertex="1" parent="1">
          <mxGeometry x="1020" y="748" width="50" height="30" as="geometry" />
        </mxCell>
      </root>
    </mxGraphModel>
  </diagram>
</mxfile>
